<svg width="3772" height="625" viewBox="0 0 3772 625" fill="none" xmlns="http://www.w3.org/2000/svg">
<path d="M786.55 444V424.469H802.053C810.272 424.469 815.074 423.98 816.457 423.004C817.84 421.946 818.736 420.725 819.143 419.342C819.712 417.796 819.997 414.662 819.997 409.942V148.468C819.997 140.167 818.98 135.203 816.945 133.575C814.26 131.541 808.929 130.523 800.954 130.523H788.015L788.503 110.504H891.53C925.71 110.504 947.52 111.847 956.96 114.532C972.748 119.008 986.094 125.681 996.999 134.552C1007.9 143.341 1017.22 155.304 1024.95 170.44C1032.68 185.496 1036.55 202.504 1036.55 221.466C1036.55 251.088 1024.14 274.973 999.318 293.121C981.577 306.061 958.791 312.53 930.959 312.53C909.719 312.53 887.624 309.397 864.675 303.131C861.989 302.398 860.606 302.032 860.524 302.032V409.942C860.524 416.941 861.949 420.969 864.797 422.027C869.029 423.655 878.916 424.469 894.46 424.469H919.484V444H786.55ZM860.524 287.018C868.988 293.365 885.549 296.539 910.207 296.539C934.865 296.539 954.234 290.069 968.312 277.13C982.473 264.19 989.553 245.31 989.553 220.489C989.553 186.635 973.846 161.57 942.434 145.294C923.472 135.447 901.174 130.523 875.539 130.523C869.68 130.523 865.936 131.5 864.309 133.453C861.786 136.546 860.524 143.219 860.524 153.473V287.018ZM1087.7 319.977C1079.97 319.977 1076.1 313.995 1076.1 302.032C1076.1 294.301 1080.01 285.39 1087.82 275.299C1102.87 255.768 1128.14 246.002 1163.62 246.002C1183.81 246.002 1197.32 253.326 1204.15 267.975C1206.51 273.102 1207.69 279.124 1207.69 286.041V379.547C1207.69 394.684 1210.5 405.426 1216.12 411.773C1221.4 417.633 1229.42 422.027 1240.16 424.957C1243.17 425.771 1244.68 427.154 1244.68 429.107C1244.68 431.061 1242.56 433.339 1238.33 435.943C1220.43 446.767 1211.03 452.301 1210.13 452.545C1202.73 447.337 1197.32 442.739 1193.9 438.751C1189.67 433.95 1183.93 426.869 1176.69 417.511C1170.01 426.544 1161.22 434.153 1150.32 440.338C1139.5 446.441 1130.01 449.493 1121.88 449.493C1113.82 449.493 1107.19 448.761 1101.98 447.296C1096.77 445.831 1091.89 443.634 1087.33 440.704C1077.24 434.194 1072.19 424.347 1072.19 411.163C1072.19 397.898 1076.59 385.406 1085.38 373.688C1094.17 361.969 1106.29 352.61 1121.75 345.611C1137.3 338.531 1154.27 334.991 1172.66 334.991V304.962C1172.66 290.639 1169.81 281.077 1164.11 276.275C1158.74 271.718 1151.58 269.439 1142.63 269.439C1133.76 269.439 1126.72 269.968 1121.51 271.026C1116.3 272.084 1112.36 273.386 1109.67 274.933C1103.97 278.188 1100.31 281.524 1098.68 284.942C1099.17 287.14 1099.86 289.866 1100.76 293.121C1102.71 300.12 1103.69 305.084 1103.69 308.014C1103.69 310.943 1101.69 313.67 1097.71 316.192C1093.8 318.715 1090.46 319.977 1087.7 319.977ZM1107.11 398.346C1107.11 404.938 1109.51 410.634 1114.31 415.436C1119.19 420.156 1125.62 422.516 1133.6 422.516C1141.57 422.516 1147.72 421.905 1152.03 420.685C1156.42 419.464 1159.88 417.918 1162.4 416.046C1164.93 414.174 1167 411.936 1168.63 409.332C1171.32 405.182 1172.66 400.421 1172.66 395.05V348.541C1152.48 348.541 1136.32 353.871 1124.2 364.532C1112.8 374.542 1107.11 385.813 1107.11 398.346ZM1296.07 285.553C1296.07 273.508 1294.16 267.486 1290.33 267.486C1288.22 267.486 1277.64 269.317 1258.6 272.979L1257.13 257.477C1259.98 256.907 1263.11 256.337 1266.53 255.768C1269.95 255.117 1272.43 254.669 1273.98 254.425C1275.52 254.099 1278.53 253.448 1283.01 252.472C1287.57 251.414 1293.39 250.03 1300.47 248.321C1307.63 246.531 1317.51 244.09 1330.13 240.997V297.516C1330.13 297.19 1332 293.854 1335.74 287.506C1339.49 281.158 1343.07 275.787 1346.49 271.393C1349.99 266.917 1353.57 262.848 1357.23 259.186C1365.69 250.722 1374.48 246.49 1383.6 246.49C1393.36 246.49 1401.3 249.176 1407.4 254.547C1408.46 255.442 1409.68 256.907 1411.06 258.941L1392.14 308.502L1384.08 305.45V298.98C1384.08 291.331 1380.1 287.506 1372.12 287.506C1366.67 287.506 1360.77 289.093 1354.42 292.267C1348.15 295.359 1342.7 299.713 1338.06 305.328C1333.42 310.943 1331.11 316.843 1331.11 323.028V407.501C1331.11 416.941 1332.73 422.678 1335.99 424.713C1339.24 426.91 1348.11 428.009 1362.6 428.009H1384.08V444H1264.58V428.009H1274.1C1284.68 428.009 1290.62 427.358 1291.92 426.056C1293.22 424.754 1294.2 423.207 1294.85 421.417C1295.66 419.22 1296.07 414.581 1296.07 407.501V285.553ZM1448.54 319.977C1440.81 319.977 1436.94 313.995 1436.94 302.032C1436.94 294.301 1440.85 285.39 1448.66 275.299C1463.71 255.768 1488.98 246.002 1524.46 246.002C1544.65 246.002 1558.16 253.326 1564.99 267.975C1567.35 273.102 1568.53 279.124 1568.53 286.041V379.547C1568.53 394.684 1571.34 405.426 1576.96 411.773C1582.24 417.633 1590.26 422.027 1601 424.957C1604.01 425.771 1605.52 427.154 1605.52 429.107C1605.52 431.061 1603.4 433.339 1599.17 435.943C1581.27 446.767 1571.87 452.301 1570.97 452.545C1563.57 447.337 1558.16 442.739 1554.74 438.751C1550.51 433.95 1544.77 426.869 1537.53 417.511C1530.85 426.544 1522.06 434.153 1511.16 440.338C1500.34 446.441 1490.85 449.493 1482.72 449.493C1474.66 449.493 1468.03 448.761 1462.82 447.296C1457.61 445.831 1452.73 443.634 1448.17 440.704C1438.08 434.194 1433.03 424.347 1433.03 411.163C1433.03 397.898 1437.43 385.406 1446.22 373.688C1455.01 361.969 1467.13 352.61 1482.59 345.611C1498.14 338.531 1515.11 334.991 1533.5 334.991V304.962C1533.5 290.639 1530.65 281.077 1524.95 276.275C1519.58 271.718 1512.42 269.439 1503.47 269.439C1494.6 269.439 1487.56 269.968 1482.35 271.026C1477.14 272.084 1473.2 273.386 1470.51 274.933C1464.81 278.188 1461.15 281.524 1459.52 284.942C1460.01 287.14 1460.7 289.866 1461.6 293.121C1463.55 300.12 1464.53 305.084 1464.53 308.014C1464.53 310.943 1462.53 313.67 1458.55 316.192C1454.64 318.715 1451.3 319.977 1448.54 319.977ZM1467.95 398.346C1467.95 404.938 1470.35 410.634 1475.15 415.436C1480.03 420.156 1486.46 422.516 1494.44 422.516C1502.41 422.516 1508.56 421.905 1512.87 420.685C1517.26 419.464 1520.72 417.918 1523.24 416.046C1525.77 414.174 1527.84 411.936 1529.47 409.332C1532.16 405.182 1533.5 400.421 1533.5 395.05V348.541C1513.32 348.541 1497.16 353.871 1485.04 364.532C1473.64 374.542 1467.95 385.813 1467.95 398.346ZM1766.9 312.53C1766.9 298.614 1764.33 288.808 1759.21 283.111C1754.16 277.333 1745.13 274.444 1732.11 274.444C1719.17 274.444 1701.96 279.815 1680.47 290.558V416.168C1680.47 420.318 1681.37 423.085 1683.16 424.469C1684.95 425.852 1686.45 426.625 1687.67 426.788C1688.89 426.951 1690.68 427.154 1693.04 427.398C1696.06 427.805 1701.83 428.009 1710.38 428.009H1716.97L1715.87 444H1618.46L1617.97 428.009C1622.12 428.009 1625.7 428.009 1628.71 428.009C1631.72 428.009 1634.12 427.887 1635.92 427.643C1637.79 427.317 1639.13 427.073 1639.94 426.91C1640.84 426.747 1641.69 426.259 1642.51 425.445C1643.4 424.632 1643.97 423.98 1644.22 423.492C1644.54 423.004 1644.83 421.987 1645.07 420.44C1645.31 418.813 1645.44 417.47 1645.44 416.412V292.022C1645.44 281.362 1644.99 274.526 1644.09 271.515C1643.28 268.504 1641.2 266.998 1637.87 266.998C1636.97 266.998 1630.67 268.341 1618.95 271.026V255.523L1680.47 242.95C1679.41 255.89 1678.88 267.73 1678.88 278.473C1680.02 277.984 1682.3 276.479 1685.72 273.956C1689.22 271.352 1693.17 268.585 1697.56 265.655C1702.04 262.726 1707.08 259.755 1712.7 256.744C1725.72 249.908 1737.56 246.49 1748.22 246.49C1758.88 246.49 1766.73 247.345 1771.78 249.054C1776.91 250.763 1781.1 252.879 1784.35 255.401C1787.69 257.843 1790.5 261.383 1792.78 266.021C1795.14 270.579 1796.89 274.77 1798.02 278.595C1799.25 282.338 1800.18 287.465 1800.83 293.976C1801.56 302.195 1801.93 313.222 1801.93 327.057V412.994C1801.93 420.074 1803.76 424.347 1807.42 425.812C1811.17 427.276 1819.51 428.009 1832.45 428.009L1831.96 444H1738.94L1738.45 428.009H1749.93C1758.64 428.009 1763.48 427.114 1764.46 425.323C1766.08 422.312 1766.9 418.202 1766.9 412.994V312.53ZM1917.41 209.991L1943.41 129.059H1978.44L1935.48 209.991H1917.41ZM1869.92 319.977C1862.19 319.977 1858.33 313.995 1858.33 302.032C1858.33 294.301 1862.23 285.39 1870.05 275.299C1885.1 255.768 1910.37 246.002 1945.85 246.002C1966.03 246.002 1979.54 253.326 1986.38 267.975C1988.74 273.102 1989.92 279.124 1989.92 286.041V379.547C1989.92 394.684 1992.73 405.426 1998.34 411.773C2003.63 417.633 2011.65 422.027 2022.39 424.957C2025.4 425.771 2026.91 427.154 2026.91 429.107C2026.91 431.061 2024.79 433.339 2020.56 435.943C2002.65 446.767 1993.26 452.301 1992.36 452.545C1984.95 447.337 1979.54 442.739 1976.12 438.751C1971.89 433.95 1966.16 426.869 1958.91 417.511C1952.24 426.544 1943.45 434.153 1932.55 440.338C1921.72 446.441 1912.24 449.493 1904.1 449.493C1896.05 449.493 1889.41 448.761 1884.21 447.296C1879 445.831 1874.11 443.634 1869.56 440.704C1859.47 434.194 1854.42 424.347 1854.42 411.163C1854.42 397.898 1858.82 385.406 1867.6 373.688C1876.39 361.969 1888.52 352.61 1903.98 345.611C1919.53 338.531 1936.49 334.991 1954.88 334.991V304.962C1954.88 290.639 1952.04 281.077 1946.34 276.275C1940.97 271.718 1933.81 269.439 1924.86 269.439C1915.99 269.439 1908.95 269.968 1903.74 271.026C1898.53 272.084 1894.58 273.386 1891.9 274.933C1886.2 278.188 1882.54 281.524 1880.91 284.942C1881.4 287.14 1882.09 289.866 1882.99 293.121C1884.94 300.12 1885.92 305.084 1885.92 308.014C1885.92 310.943 1883.92 313.67 1879.93 316.192C1876.03 318.715 1872.69 319.977 1869.92 319.977ZM1889.33 398.346C1889.33 404.938 1891.73 410.634 1896.54 415.436C1901.42 420.156 1907.85 422.516 1915.82 422.516C1923.8 422.516 1929.94 421.905 1934.25 420.685C1938.65 419.464 1942.11 417.918 1944.63 416.046C1947.15 414.174 1949.23 411.936 1950.86 409.332C1953.54 405.182 1954.88 400.421 1954.88 395.05V348.541C1934.7 348.541 1918.55 353.871 1906.42 364.532C1895.03 374.542 1889.33 385.813 1889.33 398.346ZM2136.65 130.523L2137.14 110.504H2262.62V130.523H2254.08C2242.52 130.523 2235.77 130.849 2233.82 131.5C2231.94 132.07 2230.32 132.761 2228.93 133.575C2227.55 134.389 2226.61 135.325 2226.12 136.383C2225.72 137.359 2225.23 138.702 2224.66 140.411C2223.93 142.934 2223.56 147.288 2223.56 153.473V401.52C2223.56 412.262 2224.46 418.406 2226.25 419.952C2228.12 421.417 2230.19 422.475 2232.47 423.126C2235.57 424.021 2241.59 424.469 2250.54 424.469H2270.07L2270.56 444H2142.63L2142.14 424.469H2155.08C2168.1 424.469 2175.59 423.736 2177.54 422.271C2179.58 420.725 2180.96 418.976 2181.69 417.022C2182.67 414.418 2183.16 409.576 2183.16 402.496V148.468C2183.16 139.76 2182.34 134.877 2180.71 133.819C2179.17 132.761 2177.3 131.988 2175.1 131.5C2172.5 130.849 2166.68 130.523 2157.64 130.523H2136.65ZM2441.7 312.53C2441.7 298.614 2439.14 288.808 2434.01 283.111C2428.97 277.333 2419.93 274.444 2406.91 274.444C2393.97 274.444 2376.76 279.815 2355.28 290.558V416.168C2355.28 420.318 2356.17 423.085 2357.96 424.469C2359.75 425.852 2361.26 426.625 2362.48 426.788C2363.7 426.951 2365.49 427.154 2367.85 427.398C2370.86 427.805 2376.64 428.009 2385.18 428.009H2391.77L2390.68 444H2293.26L2292.78 428.009C2296.93 428.009 2300.51 428.009 2303.52 428.009C2306.53 428.009 2308.93 427.887 2310.72 427.643C2312.59 427.317 2313.93 427.073 2314.75 426.91C2315.64 426.747 2316.5 426.259 2317.31 425.445C2318.21 424.632 2318.78 423.98 2319.02 423.492C2319.35 423.004 2319.63 421.987 2319.88 420.44C2320.12 418.813 2320.24 417.47 2320.24 416.412V292.022C2320.24 281.362 2319.79 274.526 2318.9 271.515C2318.08 268.504 2316.01 266.998 2312.67 266.998C2311.78 266.998 2305.47 268.341 2293.75 271.026V255.523L2355.28 242.95C2354.22 255.89 2353.69 267.73 2353.69 278.473C2354.83 277.984 2357.11 276.479 2360.52 273.956C2364.02 271.352 2367.97 268.585 2372.37 265.655C2376.84 262.726 2381.89 259.755 2387.5 256.744C2400.52 249.908 2412.36 246.49 2423.02 246.49C2433.69 246.49 2441.54 247.345 2446.58 249.054C2451.71 250.763 2455.9 252.879 2459.16 255.401C2462.49 257.843 2465.3 261.383 2467.58 266.021C2469.94 270.579 2471.69 274.77 2472.83 278.595C2474.05 282.338 2474.99 287.465 2475.64 293.976C2476.37 302.195 2476.74 313.222 2476.74 327.057V412.994C2476.74 420.074 2478.57 424.347 2482.23 425.812C2485.97 427.276 2494.31 428.009 2507.25 428.009L2506.76 444H2413.75L2413.26 428.009H2424.73C2433.44 428.009 2438.28 427.114 2439.26 425.323C2440.89 422.312 2441.7 418.202 2441.7 412.994V312.53ZM2686.33 456.939L2686.82 420.44C2686.82 416.127 2686.66 413.482 2686.33 412.506C2665.74 437.49 2640.88 449.981 2611.75 449.981C2587.25 449.981 2566.38 440.948 2549.12 422.882C2531.54 404.571 2522.76 380.768 2522.76 351.471C2522.76 336.904 2525.6 323.028 2531.3 309.845C2537.08 296.661 2544.57 285.471 2553.76 276.275C2573.78 256.419 2595.84 246.49 2619.92 246.49C2644.01 246.49 2665.82 253.814 2685.35 268.463V119.537C2685.35 110.178 2682.99 105.499 2678.27 105.499C2675.43 105.499 2664.44 107.656 2645.31 111.969L2644.34 96.4658C2660.78 93.4548 2686.09 87.4733 2720.27 78.5215V408.966C2720.27 417.592 2720.63 423.329 2721.36 426.178C2722.1 429.026 2723.52 430.45 2725.64 430.45C2727.83 430.45 2730.23 430.084 2732.84 429.352C2735.52 428.538 2739.31 427.358 2744.19 425.812C2749.16 424.184 2753.88 422.76 2758.35 421.539V434.967C2751.68 436.839 2740.73 440.134 2725.51 444.854C2710.38 449.575 2697.32 453.603 2686.33 456.939ZM2577.2 282.257C2571.67 288.523 2567.27 296.173 2564.02 305.206C2560.84 314.158 2559.25 324.046 2559.25 334.869C2559.25 345.693 2561.09 356.394 2564.75 366.974C2568.41 377.472 2573.54 386.79 2580.13 394.928C2594.45 412.669 2613.66 421.539 2637.75 421.539C2648.98 421.539 2657.64 419.871 2663.75 416.534C2674 410.919 2681.2 405.914 2685.35 401.52V293.976C2675.83 280.873 2661.79 271.393 2643.24 265.533C2635.92 263.173 2628.22 261.993 2620.17 261.993C2612.11 261.993 2604.3 263.784 2596.73 267.364C2589.24 270.945 2582.73 275.909 2577.2 282.257ZM2780.2 256.012C2804.94 252.024 2828.42 247.019 2850.64 240.997V414.459C2850.64 420.807 2852.1 424.55 2855.03 425.689C2858.86 427.236 2867.73 428.009 2881.64 428.009H2890.68V444H2782.16V428.009H2786.67C2801.89 428.009 2810.27 427.317 2811.82 425.934C2814.34 423.574 2815.6 420.44 2815.6 416.534V282.989C2815.6 276.642 2815.07 272.41 2814.02 270.294C2812.96 268.097 2810.56 266.998 2806.81 266.998C2803.07 266.998 2794.36 268.341 2780.69 271.026L2780.2 256.012ZM2837.7 169.586C2834.2 169.586 2829.97 166.697 2825 160.919C2820.12 155.06 2817.68 150.299 2817.68 146.637C2817.68 142.975 2820.32 138.621 2825.61 133.575C2830.9 128.53 2835.13 126.007 2838.31 126.007C2841.56 126.007 2846 128.652 2851.61 133.941C2857.31 139.231 2860.16 143.666 2860.16 147.247C2860.16 150.746 2857.27 155.344 2851.49 161.041C2845.79 166.738 2841.2 169.586 2837.7 169.586ZM2928.03 319.977C2920.3 319.977 2916.43 313.995 2916.43 302.032C2916.43 294.301 2920.34 285.39 2928.15 275.299C2943.21 255.768 2968.48 246.002 3003.96 246.002C3024.14 246.002 3037.65 253.326 3044.48 267.975C3046.84 273.102 3048.02 279.124 3048.02 286.041V379.547C3048.02 394.684 3050.83 405.426 3056.45 411.773C3061.74 417.633 3069.75 422.027 3080.5 424.957C3083.51 425.771 3085.01 427.154 3085.01 429.107C3085.01 431.061 3082.9 433.339 3078.66 435.943C3060.76 446.767 3051.36 452.301 3050.47 452.545C3043.06 447.337 3037.65 442.739 3034.23 438.751C3030 433.95 3024.26 426.869 3017.02 417.511C3010.35 426.544 3001.56 434.153 2990.65 440.338C2979.83 446.441 2970.35 449.493 2962.21 449.493C2954.15 449.493 2947.52 448.761 2942.31 447.296C2937.1 445.831 2932.22 443.634 2927.66 440.704C2917.57 434.194 2912.53 424.347 2912.53 411.163C2912.53 397.898 2916.92 385.406 2925.71 373.688C2934.5 361.969 2946.62 352.61 2962.09 345.611C2977.63 338.531 2994.6 334.991 3012.99 334.991V304.962C3012.99 290.639 3010.14 281.077 3004.45 276.275C2999.07 271.718 2991.91 269.439 2982.96 269.439C2974.09 269.439 2967.05 269.968 2961.84 271.026C2956.63 272.084 2952.69 273.386 2950 274.933C2944.31 278.188 2940.64 281.524 2939.02 284.942C2939.5 287.14 2940.2 289.866 2941.09 293.121C2943.04 300.12 2944.02 305.084 2944.02 308.014C2944.02 310.943 2942.03 313.67 2938.04 316.192C2934.13 318.715 2930.8 319.977 2928.03 319.977ZM2947.44 398.346C2947.44 404.938 2949.84 410.634 2954.64 415.436C2959.52 420.156 2965.95 422.516 2973.93 422.516C2981.9 422.516 2988.05 421.905 2992.36 420.685C2996.75 419.464 3000.21 417.918 3002.74 416.046C3005.26 414.174 3007.33 411.936 3008.96 409.332C3011.65 405.182 3012.99 400.421 3012.99 395.05V348.541C2992.81 348.541 2976.65 353.871 2964.53 364.532C2953.14 374.542 2947.44 385.813 2947.44 398.346Z" fill="black"/>
<path d="M339 18C519.045 18 665 149.628 665 312M665 312V606M665 312L13 312M339 282.6C357.004 282.6 371.6 295.763 371.6 312M591.65 312C591.65 186.162 478.535 84.15 339 84.15M518.3 312C518.3 222.696 438.025 150.3 339 150.3M444.95 312C444.95 259.229 397.515 216.45 339 216.45M339 606C158.955 606 13 474.372 13 312M13 312L13 18M339 341.4C320.996 341.4 306.4 328.237 306.4 312M86.35 312C86.35 437.838 199.465 539.85 339 539.85M159.7 312C159.7 401.304 239.975 473.7 339 473.7M233.05 312C233.05 364.771 280.485 407.55 339 407.55M306.4 18V47.4L339 47.4M339 245.85L86.35 245.85L86.35 18M339 179.7L159.7 179.7L159.7 18M339 113.55H233.05V18M371.6 606V576.6H339M339 378.15H591.65V606M339 444.3H518.3V606M339 510.45H444.95V606" stroke="#008080" stroke-width="25"/>
<path d="M339 18C519.045 18 665 149.628 665 312M665 312V606M665 312L13 312M339 282.6C357.004 282.6 371.6 295.763 371.6 312M591.65 312C591.65 186.162 478.535 84.15 339 84.15M518.3 312C518.3 222.696 438.025 150.3 339 150.3M444.95 312C444.95 259.229 397.515 216.45 339 216.45M339 606C158.955 606 13 474.372 13 312M13 312L13 18M339 341.4C320.996 341.4 306.4 328.237 306.4 312M86.35 312C86.35 437.838 199.465 539.85 339 539.85M159.7 312C159.7 401.304 239.975 473.7 339 473.7M233.05 312C233.05 364.771 280.485 407.55 339 407.55M306.4 18V47.4L339 47.4M339 245.85L86.35 245.85L86.35 18M339 179.7L159.7 179.7L159.7 18M339 113.55H233.05V18M371.6 606V576.6H339M339 378.15H591.65V606M339 444.3H518.3V606M339 510.45H444.95V606" stroke="#B2D8D8" stroke-opacity="0.17" stroke-width="25"/>
<ellipse cx="339.116" cy="312.358" rx="94.683" ry="84.8279" transform="rotate(6.0656 339.116 312.358)" fill="#AE0000"/>
</svg>
